<?xml version="1.0" encoding="utf-8"?>
<!-- Generator: Adobe Illustrator 25.0.1, SVG Export Plug-In . SVG Version: 6.00 Build 0)  -->
<svg version="1.1" id="Слой_1" xmlns="http://www.w3.org/2000/svg" xmlns:xlink="http://www.w3.org/1999/xlink" x="0px" y="0px"
	 viewBox="0 0 2836.2 997.8" style="enable-background:new 0 0 2836.2 997.8;" xml:space="preserve">
<style type="text/css">
	.st0{fill:#FFFFFF;}
	.st1{fill:#02B757;}
</style>
<g>
	<path class="st0" d="M1497.3,602.4v9.4H1425l-43.4-74.5H1348v74.5c-21.7,0-43.7,0-64.7,0c0-84.2,0-168.4,0-253c36.5,0,74.1,0,111,0
		c99.4,0.4,117.5,120,53.5,163.4L1497.3,602.4z M1394.3,416.6c-15.2-0.4-31.1,0-46.3,0c0,20.6,0,43,0,63.3h46.3
		C1429.3,479.9,1431.1,417,1394.3,416.6z"/>
	<path class="st0" d="M1703.3,480.2c20.6,10.5,30.4,29.3,30.4,51.7c-0.4,44.1-27.1,79.9-78.8,79.9h-118.6v-253h108.1
		c43.7,0,78.8,34,78.8,77.7C1723.2,451.7,1715.6,470.1,1703.3,480.2z M1598.9,416.6v40.8h40.8c25.7,0,25.7-40.8-0.4-40.8H1598.9z
		 M1598.9,511.3v43h51.7c26,0,25.7-43-0.4-43H1598.9z"/>
	<path class="st0" d="M1872.5,532.3l-48.4,79.5h-67.6V602l81.7-124.3l-73-109.2v-9.8h66.1l41.2,65.8h1.8l42.3-65.8h65.1v9.8
		l-73,109.2l82,124.3v9.8h-68l-48.1-79.5H1872.5z"/>
	<path class="st0" d="M2151.5,537.4c0-17.7-21-21.7-46.3-23.1c-54.9-4-91.1-22.8-91.8-77.7c-2.2-109.2,194.5-109.2,193,0
		c-22.8,0-39.4,0-61.4,0c0-33.6-68-30.7-70.1-0.7c-1.4,19.2,17.3,23.1,40.1,25.7c50.2,5.4,99.4,13,99.4,76.3
		c0,106.3-206,108.1-204.6-3.3c21.7,0,40.5,0,62.5,0C2072.4,566.6,2151.5,567,2151.5,537.4z"/>
	<path class="st0" d="M2419.7,416.6c-37.6,0-56.4,0-93.6,0v35.8h86c0,19.2,0,38.3,0,57.5h-86c0,14.8,0,29.3,0,44.5
		c37.2,0,58.9,0,96.9,0c0,18.8,0,38.3,0,57.5c-59.3,0-102.7,0-161.2,0c0-84.6,0-169.2,0-253c58.6,0,98.7,0,158,0
		C2419.7,377.6,2419.7,397.1,2419.7,416.6z"/>
	<path class="st0" d="M2543.4,553.6h91.8c0,21.7,0,36.5,0,58.2c-52,0-105.5,0-156.9,0v-253c21.7,0,43,0,65.1,0
		C2543.4,489.6,2543.4,445.9,2543.4,553.6z"/>
	<path class="st0" d="M2744.3,553.6h91.8c0,21.7,0,36.5,0,58.2c-52,0-105.5,0-156.9,0v-253c21.7,0,43,0,65.1,0
		C2744.3,489.6,2744.3,445.9,2744.3,553.6z"/>
</g>
<g id="robux" transform="translate(-2,-114)">
	<g id="g75">
		<path id="path73" class="st1" d="M500.7,1111.7C226.4,1111.7,2,887.3,2,613c0-274.3,224.4-498.7,498.7-498.7
			S999.4,338.7,999.4,613C999.4,887.3,775,1111.7,500.7,1111.7z M500.7,197.4c-228.6,0-415.6,187-415.6,415.6s187,415.6,415.6,415.6
			s415.6-187,415.6-415.6S729.3,197.4,500.7,197.4z"/>
	</g>
	<g id="g89">
		<g id="g79">
			<path id="path77" class="st1" d="M708.5,820.8H500.7c-8.3,0-16.6-4.2-24.9-8.3L292.9,667v112.2c0,24.9-16.6,41.6-41.6,41.6
				c-24.9,0-41.6-16.6-41.6-41.6V446.7c0-24.9,16.6-41.6,41.6-41.6h166.2c45.7,0,70.7,45.7,70.7,124.7c0,24.9-4.2,49.9-8.3,70.7
				c-16.6,49.9-49.9,54-62.3,54h-4.2l103.9,83.1h191.2c12.5,0,20.8-20.8,20.8-41.6c0-16.6-4.2-41.6-20.8-41.6h-83.1
				c-58.2,0-103.9-54-103.9-124.7c0-29.1,8.3-58.2,20.8-79c20.8-29.1,49.9-45.7,83.1-45.7h124.7c24.9,0,41.6,16.6,41.6,41.6
				s-16.6,41.6-41.6,41.6H625.4c-4.2,0-8.3,0-12.5,8.3c-4.2,8.3-8.3,20.8-8.3,33.2c0,16.6,8.3,41.6,20.8,41.6h83.1
				c58.2,0,103.9,54,103.9,124.7S766.7,820.8,708.5,820.8z M292.9,571.4H401c4.2-20.8,4.2-62.3,0-83.1H292.9V571.4z"/>
		</g>
		<g id="g83">
			<path id="path81" class="st1" d="M666.9,446.7c-24.9,0-41.6-16.6-41.6-41.6v-41.6c0-24.9,16.6-41.6,41.6-41.6
				c24.9,0,41.6,16.6,41.6,41.6v41.6C708.5,430.1,691.9,446.7,666.9,446.7z"/>
		</g>
		<g id="g87">
			<path id="path85" class="st1" d="M666.9,903.9c-24.9,0-41.6-16.6-41.6-41.6v-41.6c0-24.9,16.6-41.6,41.6-41.6
				c24.9,0,41.6,16.6,41.6,41.6v41.6C708.5,887.3,691.9,903.9,666.9,903.9z"/>
		</g>
	</g>
</g>
</svg>
